# AST/ASF file generated using VICON BodyLanguage
# -----------------------------------------------
:version 1.10
:name VICON
:units
  mass 1.0
  length 0.45
  angle deg
:documentation
   .ast/.asf automatically generated from VICON data using
   VICON BodyBuilder and BodyLanguage model FoxedUp or BRILLIANT.MOD
:root
   order TX TY TZ RX RY RZ
   axis XYZ
   position 0 0 0  
   orientation 0 0 0 
:bonedata
  begin
     id 1 
     name lhipjoint
     direction 0.627412 -0.730575 0.26947 
     length 2.49821 
     axis 0 0 0  XYZ
  end
  begin
     id 2 
     name lfemur
     direction 0.34202 -0.939693 0  
     length 6.89165  
     axis 0 0 20  XYZ
    dof rx ry rz
    limits (-160.0 20.0)
           (-70.0 70.0)
           (-60.0 70.0)
  end
  begin
     id 3 
     name ltibia
     direction 0.34202 -0.939693 0   
     length 7.91287   
     axis 0 0 20   XYZ
    dof rx
    limits (-10.0 170.0)
  end
  begin
     id 4 
     name lfoot
     direction 0.0941675 -0.258723 0.96135   
     length 2.16919   
     axis -90 7.62852e-016 20   XYZ
    dof rx rz
    limits (-45.0 90.0)
           (-70.0 20.0)
  end
  begin
     id 5 
     name ltoes
     direction 1.5347e-011 -4.21941e-011 1   
     length 1.08535   
     axis -90 7.62852e-016 20   XYZ
    dof rx
    limits (-90.0 20.0)
  end
  begin
     id 6 
     name rhipjoint
     direction -0.614241 -0.740361 0.27308   
     length 2.46519  
     axis 0 0 0  XYZ 
  end
  begin
     id 7 
     name rfemur
     direction -0.34202 -0.939693 0   
     length 7.27512   
     axis 0 0 -20   XYZ
    dof rx ry rz
    limits (-160.0 20.0)
           (-70.0 70.0)
           (-70.0 60.0)
  end
  begin
     id 8 
     name rtibia
     direction -0.34202 -0.939693 0   
     length 7.89523   
     axis 0 0 -20   XYZ
    dof rx
    limits (-10.0 170.0)
 end
 begin
     id 9 
     name rfoot
     direction -0.0860444 -0.236405 0.967837   
     length 2.29534  
     axis -90 -7.62852e-016 -20   XYZ
    dof rx rz
    limits (-45.0 90.0)
           (-20.0 70.0)
  end
  begin
     id 10 
     name rtoes
     direction -1.53608e-011 -4.21861e-011 1   
     length 1.14915   
     axis -90 -7.62852e-016 -20   XYZ
    dof rx
    limits (-90.0 20.0)
  end
  begin
     id 11 
     name lowerback
     direction -0.00734074 0.997215 -0.0742143   
     length 2.13469   
     axis 0 0 0   XYZ
    dof rx ry rz
    limits (-20.0 45.0)
           (-30.0 30.0)
           (-30.0 30.0)
  end
  begin
     id 12 
     name upperback
     direction 0.0285728 0.99958 -0.00488656   
     length 2.13416   
     axis 0 0 0   XYZ
    dof rx ry rz
    limits (-20.0 45.0)
           (-30.0 30.0)
           (-30.0 30.0)
  end
  begin
     id 13 
     name thorax
     direction 0.0316844 0.999056 0.0297249   
     length 2.14463   
     axis 0 0 0   XYZ
    dof rx ry rz
    limits (-20.0 45.0)
           (-30.0 30.0)
           (-30.0 30.0)
  end
  begin
     id 14 
     name lowerneck
     direction -0.0281545 0.996802 0.0747864   
     length 1.79004   
     axis 0 0 0   XYZ
    dof rx ry rz
    limits (-20.0 45.0)
           (-30.0 30.0)
           (-30.0 30.0)
  end
  begin
     id 15 
     name upperneck
     direction -0.00100185 0.982732 -0.185031   
     length 1.79988   
     axis 0 0 0   XYZ
    dof rx ry rz
    limits (-20.0 45.0)
           (-30.0 30.0)
           (-30.0 30.0)
  end
  begin
     id 16
     name head
     direction 0.00403747 0.997539 -0.0700022  
     length 1.81696  
     axis 0 0 0   XYZ
    dof rx ry rz
    limits (-20.0 45.0)
           (-30.0 30.0)
           (-30.0 30.0)
  end
  begin
     id 17 
     name lclavicle
     direction 0.959882 0.242905 -0.140082  
     length 3.87755  
     axis 0 0 0   XYZ
    dof ry rz
    limits (-20.0 10.0)
           (0.0 20.0)
  end
  begin
     id 18 
     name lhumerus
     direction 1 -4.4895e-011 3.76166e-027   
     length 5.14601   
     axis 180 -30 -90   XYZ
    dof rx ry rz
    limits (-60.0 90.0)
           (-90.0 90.0)
           (-90.0 90.0)
  end
  begin
     id 19
     name lradius
     direction 1 -4.48966e-011 -3.24039e-027   
     length 3.64452   
     axis 180 -30 -90   XYZ
    dof rx
    limits (-10.0 170.0)
  end
  begin
     id 20
     name lwrist
     direction 1 -4.48999e-011 2.57119e-027   
     length 1.82226   
     axis -1.61769e-015 90 90   XYZ
    dof ry
    limits (-180.0 0.0)
 end
  begin
     id 21 
     name lhand
     direction 1 -4.48961e-011 5.13984e-027   
     length 0.56228   
     axis -3.27988e-015 90 90   XYZ
    dof rx rz
    limits (-90.0 90.0)
           (-45.0 45.0)
  end
  begin
     id 22 
     name lfingers
     direction 1 -4.48991e-011 1.02836e-026   
     length 0.453325   
     axis -6.5598e-015 90 90   XYZ
    dof rx
    limits (0.0 90.0)
  end
  begin
     id 23
     name lthumb
     direction 0.707107 -6.34956e-011 0.707107   
     length 0.650886   
     axis -90 45 2.19363e-014   XYZ
    dof rx rz
    limits (-45.0 45.0)
           (-45.0 45.0)
  end
  begin
     id 24 
     name rclavicle
     direction -0.929201 0.345171 -0.132073   
     length 3.55416  
     axis 0 0 0   XYZ 
    dof ry rz
    limits (-10.0 20.0)
           (-20.0 0.0)
  end
  begin
     id 25 
     name rhumerus
     direction -1 -4.48979e-011 4.53734e-027  
     length 5.33913   
     axis 180 30 90   XYZ
    dof rx ry rz
    limits (-90.0 60.0)
           (-90.0 90.0)
           (-90.0 90.0)
  end
  begin
     id 26 
     name rradius
     direction -1 -4.4896e-011 -2.24007e-027   
     length 3.56478   
     axis 180 30 90   XYZ
    dof rx
    limits (-10.0 170.0)
  end
  begin
     id 27 
     name rwrist
     direction -1 -4.48923e-011 2.56866e-027   
     length 1.78239   
     axis -1.61769e-015 -90 -90   XYZ
    dof ry
    limits (-180.0 0.0)
  end
  begin
     id 28
     name rhand
     direction -1 -4.48914e-011 5.13667e-027   
     length 0.857474   
     axis -3.27988e-015 -90 -90   XYZ
    dof rx rz
    limits (-90.0 90.0)
           (-45.0 45.0)
  end
  begin
     id 29
     name rfingers
     direction -1 -4.49112e-011 1.02998e-026   
     length 0.691318   
     axis -6.5598e-015 -90 -90   XYZ
    dof rx
    limits (0.0 90.0)
  end
  begin
     id 30
     name rthumb
     direction -0.707107 -6.34979e-011 0.707107   
     length 0.992598   
     axis -90 -45 -2.19363e-014   XYZ
    dof rx rz
    limits (-45.0 45.0)
           (-45.0 45.0)
  end
:hierarchy
  begin
    root lhipjoint rhipjoint lowerback
    lhipjoint lfemur
    lfemur ltibia
    ltibia lfoot
    lfoot ltoes
    rhipjoint rfemur
    rfemur rtibia
    rtibia rfoot
    rfoot rtoes
    lowerback upperback
    upperback thorax
    thorax lowerneck lclavicle rclavicle
    lowerneck upperneck
    upperneck head
    lclavicle lhumerus
    lhumerus lradius
    lradius lwrist
    lwrist lhand lthumb
    lhand lfingers
    rclavicle rhumerus
    rhumerus rradius
    rradius rwrist
    rwrist rhand rthumb
    rhand rfingers
  end

#!OML:ASF F:\VICON\USERDATA\INSTALL\Justin4\Justin4.ASF
:FULLY-SPECIFIED
:DEGREES
2436
root -9.26695 14.2709 13.7809 5.6998 -14.8952 -5.84889
lowerback 28.3015 1.12959 0.28742
upperback 7.93496 1.3981 0.0464395
thorax -6.72519 0.613804 -0.568863
lowerneck -10.2619 3.30713 -6.42917
upperneck 4.65423 5.20968 0.961403
head 3.12731 2.49928 1.75068
rclavicle 3.97569e-016 1.43125e-014
rhumerus -0.76873 -13.9516 -75.2017
rradius 139.966
rwrist -22.9959
rhand -3.23736 23.7906
rfingers 7.12502
rthumb 22.4862 -364.92
lclavicle 3.97569e-016 1.43125e-014
lhumerus 15.4527 1.9576 84.227
lradius 138.84
lwrist 12.948
lhand -5.80346 7.69348
lfingers 7.12502
lthumb 20.0213 36.682
rfemur -32.5532 -10.0406 4.39719
rtibia 76.079
rfoot -31.6847 -8.81295
rtoes -34.0448
lfemur -49.1885 14.224 8.02161
ltibia 76.37
lfoot -15.6938 -8.80159
ltoes -38.8795
2437
root -9.16846 14.3529 13.7958 5.59252 -15.1818 -5.70899
lowerback 27.8482 1.02713 0.305657
upperback 7.96967 1.28239 0.161299
thorax -6.47153 0.559673 -0.406567
lowerneck -10.6504 3.26757 -6.23552
upperneck 4.58677 5.1368 1.2599
head 3.17917 2.48149 1.82333
rclavicle -1.19271e-015 7.95139e-016
rhumerus -0.611933 -14.1581 -74.7113
rradius 140.08
rwrist -23.0101
rhand -3.57983 24.3165
rfingers 7.12502
rthumb 22.1574 -364.434
lclavicle -1.19271e-015 7.95139e-016
lhumerus 15.7117 1.96227 84.1422
lradius 138.82
lwrist 13.0571
lhand -5.67769 8.34041
lfingers 7.12502
lthumb 20.1422 37.3162
rfemur -31.8804 -9.65314 3.98251
rtibia 74.6252
rfoot -31.1293 -8.67127
rtoes -33.8396
lfemur -48.7117 13.9612 7.42619
ltibia 75.8659
lfoot -15.6868 -8.42939
ltoes -38.6796
2438
root -9.07038 14.4439 13.8122 5.58956 -15.3891 -5.62447
lowerback 27.2576 0.923766 0.344241
upperback 7.91565 1.17756 0.335766
thorax -6.24989 0.510877 -0.195018
lowerneck -10.7228 3.26076 -5.99435
upperneck 4.39882 5.08239 1.47679
head 3.13052 2.47324 1.84748
rclavicle 0 -9.14409e-015
rhumerus -0.658658 -14.3142 -74.1431
rradius 140.225
rwrist -22.9578
rhand -3.93718 24.5917
rfingers 7.12502
rthumb 21.8143 -364.199
lclavicle 0 -9.14409e-015
lhumerus 15.8294 1.87716 84.0241
lradius 138.772
lwrist 13.0999
lhand -5.90733 8.16163
lfingers 7.12502
lthumb 19.9214 37.1605
rfemur -31.1878 -9.31414 3.64994
rtibia 73.0467
rfoot -30.5476 -8.41072
rtoes -33.6066
lfemur -48.2888 13.6983 6.80215
ltibia 75.2691
lfoot -15.6062 -7.88782
ltoes -38.8479
2439
root -8.97314 14.5454 13.8323 5.67887 -15.6874 -5.79041
lowerback 26.7226 0.864371 0.553689
upperback 7.76397 1.18032 0.606477
thorax -6.15984 0.51211 -0.0133174
lowerneck -10.6285 3.24835 -5.80466
upperneck 4.18195 5.0174 1.69131
head 3.03958 2.45855 1.87306
rclavicle -8.74653e-015 6.36111e-015
rhumerus -0.791052 -14.3449 -73.5628
rradius 140.325
rwrist -22.7392
rhand -3.25041 23.7844
rfingers 7.12502
rthumb 22.4736 -364.928
lclavicle -8.74653e-015 6.36111e-015
lhumerus 15.6415 1.74693 83.9311
lradius 138.803
lwrist 13.1168
lhand -6.11616 7.832
lfingers 7.12502
lthumb 19.7207 36.8516
rfemur -30.5532 -8.79135 3.64485
rtibia 71.3636
rfoot -29.9691 -8.38523
rtoes -34.5158
lfemur -47.7728 13.5991 6.44595
ltibia 74.5698
lfoot -15.4333 -7.47195
ltoes -38.6846
2440
root -8.86693 14.6604 13.8506 5.72348 -15.8054 -5.85816
lowerback 26.4836 0.710214 0.796162
upperback 7.54051 1.07063 0.851564
thorax -6.29137 0.458596 0.151225
lowerneck -10.7024 3.26006 -5.47522
upperneck 4.10661 4.98639 1.77521
head 3.034 2.45427 1.84121
rclavicle 3.04141e-014 -1.78906e-014
rhumerus -0.817942 -14.3627 -72.9929
rradius 140.392
rwrist -22.3703
rhand -2.59822 23.284
rfingers 7.12502
rthumb 23.0995 -365.351
lclavicle 3.04141e-014 -1.78906e-014
lhumerus 15.3269 1.72712 83.8844
lradius 138.834
lwrist 13.2133
lhand -6.02791 7.75506
lfingers 7.12502
lthumb 19.8055 36.766
rfemur -29.8258 -8.45757 3.52323
rtibia 69.5636
rfoot -29.3462 -8.42987
rtoes -36.102
lfemur -47.2965 13.2544 5.94681
ltibia 73.7368
lfoot -15.1677 -7.09078
ltoes -38.155
